<svg width="512" height="512" viewBox="0 0 1200 1200" xmlns="http://www.w3.org/2000/svg">
  <defs>
    <linearGradient id="snakeGrad" x1="0" y1="0" x2="1200" y2="0" gradientUnits="userSpaceOnUse">
      <stop offset="0%" stop-color="rgba(255,255,255,0.15)"/>
      <stop offset="100%" stop-color="rgba(255,255,255,0.95)"/>
    </linearGradient>
    <linearGradient id="bg" x1="0" y1="0" x2="1200" y2="1200" gradientUnits="userSpaceOnUse">
      <stop offset="0%" stop-color="#5b21b6"/>
      <stop offset="50%" stop-color="#7c3aed"/>
      <stop offset="100%" stop-color="#4f46e5"/>
    </linearGradient>
  </defs>
  <!-- Background rounded square -->
  <rect width="1200" height="1200" rx="265" fill="url(#bg)"/>
  <!-- Snake (traced from user's icon, flipped Y since original uses inverted coords) -->
  <g transform="translate(-114,1140) scale(0.12,-0.12)" fill="url(#snakeGrad)" stroke="none">
    <path d="M5760 8849 c-203 -12 -324 -35 -343 -66 -4 -7 -19 -13 -32 -13 -15 0 -25 -6 -25 -14 0 -8 -7 -16 -15 -20 -8 -3 -12 -12 -9 -21 3 -8 1 -15 -5 -15 -6 0 -11 -9 -11 -19 0 -10 -6 -21 -14 -24 -9 -4 -13 -21 -12 -57 1 -28 -2 -54 -6 -56 -4 -3 -8 -17 -8 -32 0 -35 -32 -57 -58 -41 -13 8 -46 9 -105 4 -79 -6 -107 -17 -75 -27 6 -2 -12 -4 -40 -4 -29 0 -58 -6 -64 -12 -7 -7 -24 -12 -38 -12 -33 0 -43 -9 -29 -27 9 -9 8 -13 0 -13 -6 0 -11 5 -11 10 0 17 -20 12 -97 -25 -41 -19 -78 -35 -83 -35 -6 0 -10 -4 -10 -9 0 -5 -13 -12 -30 -16 -16 -4 -30 -11 -30 -16 0 -5 -8 -9 -17 -9 -10 0 -27 -7 -37 -15 -11 -8 -28 -15 -38 -15 -10 0 -21 -7 -24 -15 -4 -8 -10 -15 -15 -15 -17 0 -128 -75 -129 -87 0 -7 -7 -10 -15 -6 -20 7 -55 -24 -55 -49 0 -11 -7 -18 -19 -18 -11 0 -22 -8 -26 -19 -4 -13 -12 -17 -28 -14 -17 3 -26 -2 -35 -21 -6 -14 -18 -26 -27 -26 -8 0 -15 -7 -15 -15 0 -10 -7 -15 -17 -13 -13 2 -19 -5 -21 -25 -3 -23 -8 -28 -23 -24 -13 3 -23 -2 -30 -15 -6 -12 -24 -34 -40 -49 -16 -16 -29 -33 -29 -39 0 -5 -8 -10 -17 -10 -20 0 -56 -35 -66 -62 -3 -10 -12 -18 -18 -18 -7 0 -9 -10 -5 -27 4 -19 4 -23 -3 -14 -11 16 -34 4 -27 -14 2 -7 -1 -16 -8 -18 -8 -3 -24 -27 -37 -54 -20 -39 -24 -44 -27 -25 -5 32 -22 27 -22 -7 0 -16 -7 -34 -15 -41 -8 -7 -15 -21 -15 -31 0 -11 -7 -19 -15 -19 -9 0 -15 -9 -15 -24 0 -13 -6 -26 -13 -29 -7 -2 -23 -25 -36 -50 -13 -26 -31 -54 -41 -64 -35 -38 -52 -71 -38 -75 9 -3 5 -14 -13 -35 -14 -17 -36 -57 -48 -89 -12 -33 -27 -67 -32 -76 -5 -10 -9 -25 -9 -34 0 -9 -8 -28 -18 -42 -21 -29 -30 -58 -39 -112 -3 -19 -11 -42 -19 -51 -8 -8 -14 -25 -14 -36 0 -11 -11 -53 -25 -93 -14 -40 -25 -87 -25 -104 0 -17 -5 -48 -11 -70 -22 -80 -30 -146 -36 -296 -11 -290 -7 -462 16 -585 6 -33 13 -76 15 -95 5 -44 47 -203 55 -210 3 -3 6 -23 7 -44 0 -22 6 -42 12 -44 7 -2 12 -19 12 -37 0 -19 5 -37 10 -40 6 -3 10 -15 10 -25 0 -10 7 -25 15 -34 8 -8 15 -24 15 -35 0 -11 4 -23 10 -26 5 -3 14 -25 21 -48 6 -23 24 -66 39 -95 16 -29 28 -59 26 -65 -1 -7 -1 -9 1 -4 12 20 24 4 18 -23 -5 -23 -3 -30 9 -30 9 0 16 -7 16 -15 0 -8 8 -24 18 -34 33 -37 42 -50 40 -58 -3 -11 39 -89 46 -85 15 6 17 1 6 -13 -6 -8 -9 -19 -5 -25 5 -8 12 -5 22 7 13 17 14 15 9 -14 -4 -24 -2 -31 7 -27 8 3 22 -15 37 -47 14 -28 35 -59 47 -69 13 -10 23 -23 23 -29 0 -6 6 -11 14 -11 8 0 16 -10 20 -23 3 -12 26 -44 51 -70 25 -26 45 -51 45 -56 0 -4 14 -19 31 -32 18 -13 54 -45 81 -71 44 -42 47 -48 31 -58 -16 -10 -15 -11 6 -6 25 5 60 -25 61 -54 0 -12 2 -12 8 -2 7 9 18 4 47 -23 22 -19 45 -35 52 -35 7 0 13 -7 13 -15 0 -8 6 -15 13 -15 7 0 21 -11 31 -25 10 -14 24 -25 31 -25 11 0 73 -44 155 -110 14 -11 33 -20 43 -20 9 0 17 -4 17 -9 0 -5 18 -16 40 -25 22 -9 40 -20 40 -26 0 -5 7 -10 15 -10 8 0 30 -11 50 -24 20 -14 49 -27 65 -31 17 -4 30 -11 30 -16 0 -5 7 -9 16 -9 9 0 27 -9 41 -20 14 -11 32 -20 39 -20 12 0 91 -33 151 -62 12 -6 34 -8 48 -4 22 6 26 4 22 -8 -5 -12 0 -16 20 -16 30 0 95 -21 104 -33 3 -5 12 -7 20 -6 8 1 21 0 29 -3 42 -15 260 -58 295 -58 22 0 69 -7 105 -16 73 -17 348 -24 470 -11 243 24 242 24 460 71 141 30 230 54 244 65 6 4 39 14 74 22 34 7 62 18 62 24 0 6 20 17 45 24 25 7 56 22 69 32 13 11 29 19 35 19 6 0 45 18 87 40 42 22 82 40 89 40 7 0 19 7 26 17 8 9 33 25 56 35 23 10 56 30 72 44 17 14 35 23 41 19 5 -3 15 6 22 20 7 15 18 25 28 23 15 -3 29 8 116 90 19 17 37 32 40 32 4 0 19 11 36 25 16 14 36 25 44 25 8 0 14 7 14 15 0 22 32 51 55 48 11 -2 14 0 8 3 -25 11 -13 26 15 20 16 -4 22 -3 14 2 -17 12 -4 45 15 37 11 -3 13 -1 9 10 -3 10 4 20 22 29 15 8 33 25 40 38 7 12 29 34 47 48 19 14 37 33 40 43 4 9 12 17 20 17 7 0 16 11 19 25 4 14 11 25 16 25 6 0 10 7 10 15 0 7 6 18 14 22 20 11 60 69 88 126 13 26 29 47 36 47 7 0 15 8 19 18 4 9 18 35 32 57 15 22 27 45 27 50 0 17 27 65 36 65 4 0 8 9 8 20 0 11 5 20 10 20 6 0 10 12 10 26 0 19 4 25 15 20 11 -4 15 1 15 18 0 14 4 26 8 28 5 2 20 28 34 60 20 43 23 59 14 68 -8 10 -7 12 6 7 18 -6 44 42 35 66 -3 8 5 33 18 56 38 66 114 359 121 465 3 34 11 90 19 124 25 116 21 643 -6 693 -5 10 -9 34 -9 54 0 37 -32 188 -55 260 -7 22 -16 58 -20 80 -4 22 -23 69 -42 105 -20 38 -33 74 -30 87 3 14 -4 30 -19 44 -12 11 -20 27 -17 35 3 7 -9 39 -26 70 -17 32 -31 65 -31 75 0 10 -4 21 -10 24 -5 3 -10 15 -10 25 0 10 -6 23 -12 27 -17 11 -48 57 -77 113 -13 25 -29 49 -37 53 -8 4 -14 17 -14 27 0 11 -6 20 -14 20 -8 0 -18 13 -24 28 -19 55 -82 142 -108 148 -18 5 -23 11 -19 25 4 12 2 19 -7 19 -8 0 -22 14 -31 30 -10 17 -22 30 -28 30 -5 0 -9 7 -9 15 0 8 -10 20 -22 26 -24 13 -48 34 -48 43 0 10 -68 76 -78 76 -6 0 -12 10 -14 22 -2 13 -11 24 -22 26 -11 3 -25 9 -32 16 -6 6 -39 37 -73 69 -34 31 -68 57 -76 57 -8 0 -19 9 -25 21 -7 12 -18 18 -26 15 -8 -3 -14 -1 -14 5 0 5 -8 12 -17 16 -10 4 -37 19 -60 35 -23 15 -49 28 -58 28 -11 0 -15 5 -11 15 3 10 -1 15 -14 15 -10 0 -22 5 -25 11 -4 5 -12 8 -18 6 -7 -2 -28 8 -47 23 -38 29 -156 90 -174 90 -7 0 -29 9 -51 20 -22 11 -46 20 -55 20 -8 0 -21 9 -28 20 -7 11 -21 20 -32 20 -11 0 -20 5 -20 10 0 6 -8 13 -17 17 -10 3 -39 21 -66 40 -26 18 -50 33 -53 33 -4 0 -13 8 -20 18 -11 14 -15 14 -23 3 -10 -16 -26 3 -15 20 4 8 -1 9 -16 4 -19 -6 -22 -4 -17 9 4 11 0 19 -11 23 -9 3 -29 15 -44 25 -14 10 -33 18 -41 18 -8 0 -17 7 -21 15 -3 8 -12 15 -21 15 -8 0 -15 5 -15 10 0 6 -8 10 -18 10 -10 0 -26 6 -37 13 -11 8 -35 17 -54 21 -19 3 -42 12 -50 20 -27 24 -219 56 -391 65 -180 10 -174 10 -340 0z m435 -68 c128 -13 331 -65 359 -92 6 -5 16 -9 24 -9 14 0 128 -74 267 -175 44 -31 87 -60 95 -63 8 -3 33 -17 55 -31 49 -32 59 -37 210 -101 66 -28 150 -69 188 -90 38 -22 71 -40 73 -40 9 0 125 -81 207 -144 44 -34 91 -70 106 -80 41 -31 213 -204 277 -281 110 -130 213 -278 279 -397 35 -64 121 -237 135 -273 4 -11 15 -36 23 -55 49 -116 111 -330 137 -472 5 -32 14 -82 19 -110 6 -29 15 -133 22 -231 16 -228 3 -394 -52 -672 -22 -109 -23 -114 -70 -260 -93 -293 -260 -604 -457 -850 -89 -112 -296 -320 -405 -408 -289 -233 -661 -425 -992 -512 -252 -66 -430 -89 -700 -89 -271 0 -427 20 -690 89 -169 45 -240 69 -363 126 -35 16 -65 29 -67 29 -7 0 -111 52 -180 90 -106 57 -327 211 -435 301 -308 258 -568 610 -732 989 -9 19 -23 51 -31 70 -16 36 -80 234 -98 305 -6 22 -14 54 -19 70 -4 17 -13 59 -19 95 -7 36 -16 88 -21 115 -5 28 -15 120 -21 206 -13 166 -4 351 27 569 14 98 74 351 93 395 5 11 19 49 31 85 74 215 251 538 387 708 21 26 40 49 43 52 3 3 18 21 34 40 53 65 181 195 246 250 36 30 67 58 70 61 11 12 138 107 196 146 134 91 312 183 489 253 104 41 131 50 149 50 12 0 26 4 31 9 12 10 75 20 93 14 37 -14 -5 -43 -117 -80 -86 -28 -386 -181 -491 -250 -212 -139 -423 -327 -556 -495 -123 -154 -250 -349 -303 -463 -101 -218 -129 -290 -181 -475 -53 -188 -80 -409 -80 -653 0 -229 10 -320 56 -531 92 -420 301 -821 596 -1146 131 -144 206 -212 383 -347 214 -163 516 -311 803 -393 301 -86 683 -119 937 -80 33 5 96 14 140 21 119 17 342 74 453 115 592 221 1073 640 1370 1194 113 211 210 482 252 705 50 267 54 626 9 885 -60 340 -179 643 -367 935 -109 169 -177 252 -346 420 -157 156 -434 365 -483 365 -15 0 31 -42 87 -80 19 -13 37 -27 40 -30 3 -3 41 -35 85 -70 88 -71 239 -219 326 -320 308 -358 504 -777 580 -1242 30 -177 32 -530 6 -716 -34 -244 -137 -571 -235 -752 -81 -149 -101 -183 -154 -262 -149 -223 -360 -445 -578 -607 -328 -244 -664 -387 -1070 -456 -207 -35 -614 -30 -828 11 -470 89 -934 341 -1274 691 -162 166 -225 245 -341 425 -128 198 -249 484 -303 717 -54 230 -58 275 -58 571 -1 313 8 388 75 639 178 666 630 1217 1254 1529 128 63 306 129 398 146 152 28 337 -11 582 -121 141 -64 188 -81 266 -97 37 -7 64 -18 64 -25 0 -18 -194 -119 -303 -158 -52 -18 -151 -47 -220 -64 -132 -32 -285 -74 -357 -99 -51 -17 -280 -128 -345 -166 -178 -105 -421 -335 -536 -509 -97 -145 -214 -385 -244 -500 -69 -261 -84 -365 -83 -590 1 -243 35 -421 126 -655 103 -266 233 -467 427 -661 124 -124 165 -159 283 -240 83 -58 255 -152 322 -177 17 -6 55 -21 85 -33 30 -11 70 -25 88 -30 17 -5 49 -14 70 -20 247 -71 568 -78 857 -20 484 98 916 398 1198 831 46 71 136 246 168 325 29 70 75 227 94 318 53 252 43 611 -22 857 -34 129 -42 153 -73 230 -146 369 -427 700 -764 899 -100 59 -235 117 -316 137 -78 19 -281 18 -350 -2 -213 -60 -244 -66 -375 -67 -122 -1 -173 7 -227 34 -10 5 -24 9 -32 9 -23 0 -70 45 -62 58 4 7 22 12 40 12 140 0 384 86 586 206 30 18 91 47 135 64 125 49 128 66 12 62 -87 -4 -231 29 -342 78 -22 9 -89 38 -148 64 -198 87 -267 106 -412 115 l-100 6 -19 40 c-25 54 -27 141 -2 186 10 19 35 46 55 59 33 22 54 25 286 40 265 17 331 18 490 1z m-564 -1002 c13 -11 31 -18 40 -16 12 3 16 0 12 -9 -3 -10 5 -16 26 -20 17 -4 31 -10 31 -15 0 -5 14 -9 30 -9 17 0 45 -7 63 -16 25 -14 51 -16 134 -11 57 2 109 10 117 16 7 6 21 9 29 5 9 -3 42 2 73 11 32 9 71 14 87 11 27 -5 28 -4 16 11 -13 15 -9 16 51 9 59 -7 63 -6 45 8 -18 13 -9 14 95 12 107 -2 158 -13 153 -33 -2 -4 5 -8 15 -9 36 -1 102 -16 107 -23 2 -5 18 -8 35 -9 16 0 42 -10 56 -21 15 -12 32 -21 39 -21 6 0 20 -9 30 -20 10 -11 39 -30 64 -43 25 -12 61 -37 80 -54 20 -18 39 -33 43 -33 7 0 84 -65 158 -135 20 -18 54 -58 75 -89 30 -41 45 -53 58 -49 16 4 18 1 12 -16 -3 -12 -2 -21 3 -21 5 0 26 -25 46 -55 20 -31 43 -58 51 -61 7 -3 17 -19 20 -35 4 -16 13 -29 21 -29 14 0 19 -17 15 -57 -2 -25 13 -31 23 -10 4 6 4 2 2 -11 -3 -15 2 -26 15 -32 10 -6 19 -18 19 -27 0 -16 36 -106 71 -176 10 -22 19 -53 19 -69 0 -17 7 -36 16 -43 10 -7 20 -36 25 -76 5 -35 16 -111 24 -169 13 -81 15 -149 10 -300 -6 -226 -13 -311 -26 -324 -5 -6 -9 -33 -9 -62 0 -36 -6 -59 -20 -77 -11 -14 -20 -36 -20 -49 0 -12 -9 -41 -19 -63 -34 -70 -76 -179 -73 -191 1 -7 -4 -14 -13 -18 -8 -3 -15 -15 -15 -26 0 -11 -7 -20 -15 -20 -8 0 -15 -9 -15 -20 0 -10 -8 -27 -19 -37 -10 -10 -26 -33 -36 -52 -32 -64 -91 -141 -192 -252 -24 -25 -43 -51 -43 -58 0 -6 -11 -11 -25 -11 -18 0 -25 -5 -25 -20 0 -11 -4 -20 -9 -20 -5 0 -24 -15 -43 -32 -96 -92 -156 -138 -181 -138 -7 0 -31 -18 -53 -40 -21 -21 -50 -42 -64 -45 -14 -4 -31 -12 -39 -18 -8 -7 -25 -12 -39 -12 -30 0 -41 -21 -15 -29 10 -3 2 -4 -18 -3 -27 2 -35 -1 -32 -10 3 -8 -3 -13 -16 -13 -11 0 -35 -6 -53 -14 -81 -34 -277 -90 -358 -103 -19 -3 -40 -10 -47 -15 -7 -6 -44 -7 -90 -3 -54 4 -73 3 -63 -4 20 -14 3 -28 -18 -14 -18 11 -144 10 -173 -2 -10 -4 -19 0 -22 9 -6 14 -21 15 -104 10 -84 -6 -100 -4 -112 10 -7 9 -24 16 -37 16 -12 0 -35 5 -51 11 -15 6 -59 19 -98 29 -95 24 -169 55 -240 100 -16 10 -39 19 -51 19 -12 1 -37 12 -57 25 -19 13 -38 22 -41 18 -4 -3 -13 4 -22 16 -12 17 -21 21 -42 15 -24 -6 -25 -4 -14 9 11 13 11 18 0 25 -30 19 -54 33 -75 42 -25 12 -74 52 -115 96 -15 16 -28 24 -28 17 0 -6 -5 -12 -11 -12 -6 0 -9 6 -6 14 3 8 -1 17 -8 20 -8 3 -13 11 -11 18 1 7 1 10 -1 6 -8 -13 -23 -9 -23 6 0 8 -4 16 -8 18 -8 3 -54 53 -126 138 -41 48 -116 152 -116 161 0 4 -8 5 -17 2 -16 -6 -16 -5 -4 10 7 9 10 17 5 17 -5 0 -25 25 -43 55 -19 30 -39 55 -43 55 -4 0 -8 9 -8 20 0 11 5 20 11 20 5 0 7 5 3 12 -6 9 -9 9 -12 0 -2 -7 -8 -12 -14 -12 -6 0 -7 7 -4 16 3 8 -3 33 -14 54 -11 21 -27 61 -36 87 -9 26 -23 56 -31 65 -10 11 -13 26 -9 41 4 16 0 29 -9 37 -9 7 -15 29 -15 53 0 22 -6 48 -13 56 -22 26 -49 215 -50 356 -3 249 7 355 48 486 8 26 15 59 15 73 0 15 7 29 16 33 8 3 14 15 13 27 -4 27 14 78 51 150 17 31 30 65 30 74 0 9 9 28 20 42 11 14 20 31 20 38 0 7 4 18 10 25 44 54 60 76 60 82 0 3 21 34 47 68 26 34 52 68 58 76 5 7 22 26 38 41 15 16 27 31 27 35 0 9 85 95 94 95 3 0 36 29 72 65 37 36 71 65 76 65 5 0 7 4 4 8 -3 5 5 8 17 8 16 -1 21 4 19 17 -3 15 1 17 17 12 14 -4 21 -2 21 7 0 12 67 48 88 48 5 0 19 11 32 24 12 14 35 28 50 31 16 3 31 13 34 22 4 9 13 13 22 9 9 -4 28 1 41 10 14 9 34 14 44 11 14 -4 19 -1 17 10 -2 12 15 21 62 36 36 10 74 23 85 27 31 14 56 18 116 19 43 1 61 -4 80 -20z"/>
    <path d="M5514 8650 c-28 -11 -36 -24 -28 -44 12 -31 134 -14 134 18 0 8 -4 17 -9 20 -17 11 -77 15 -97 6z"/>
    <path d="M5923 8636 c-18 -8 -33 -22 -33 -30 0 -9 12 -16 33 -18 26 -2 33 -8 35 -28 10 -74 122 -61 122 13 0 16 5 18 28 12 43 -11 81 -11 83 0 2 6 -18 20 -44 33 -59 30 -177 39 -224 18z"/>
  </g>
</svg>